<?xml version="1.0" encoding="UTF-8"?>
<svg xmlns="http://www.w3.org/2000/svg" version="1.1" viewBox="0 0 360 360">
  <defs>
    <style>
      .cls-1 {
        fill: none;
        stroke: #ffc700;
        stroke-miterlimit: 10;
        stroke-width: 30px;
      }

      .cls-2 {
        fill: #32006e;
      }

      .cls-2, .cls-3, .cls-4, .cls-5 {
        stroke-width: 0px;
      }

      .cls-3 {
        fill: #4b2e83;
      }

      .cls-4 {
        fill: #fff;
      }

      .cls-5 {
        fill: #ffc700;
      }
    </style>
  </defs>
  <g id="Layer_1" data-name="Layer 1">
    <g>
      <path class="cls-5" d="M182.21,112.42c5.32,0,10.5.55,15.48,1.58l-17.53-92.08-14.17,92.24c5.21-1.13,10.64-1.73,16.22-1.73Z"/>
      <path class="cls-5" d="M339.97,180.28l-88.21-16.75c1.33,5.1,2.03,10.43,2.03,15.91,0,5.09-.61,10.06-1.76,14.83l87.94-13.98Z"/>
      <path class="cls-5" d="M182.21,246.45c-4.89,0-9.67-.46-14.28-1.34l17.68,91.98,14.38-92.73c-5.69,1.36-11.64,2.09-17.78,2.09Z"/>
      <path class="cls-5" d="M110.62,179.43c0-4.59.49-9.07,1.43-13.4l-86.26,16.69,87.12,13.6c-1.5-5.4-2.29-11.05-2.29-16.89Z"/>
    </g>
    <g>
      <path class="cls-5" d="M216.6,119.11c10.47,5.73,19.26,14.12,25.48,24.26l38.86-63.59-64.35,39.33Z"/>
      <path class="cls-5" d="M149.08,120.34l-66.34-40.55,40.99,67.07c5.88-10.98,14.67-20.17,25.35-26.52Z"/>
      <path class="cls-5" d="M122.67,211.02l-40.94,66.98,65.11-41.11c-10.16-6.34-18.53-15.27-24.18-25.87Z"/>
      <path class="cls-5" d="M217.83,238.15l63.11,39.85-38.8-63.49c-5.98,9.78-14.36,17.92-24.31,23.64Z"/>
    </g>
    <path class="cls-2" d="M197.1,242.12c-2.85,0-5.71-.04-8.56.17-1.43.11-2.87.21-4.3.21-.72,0-1.44-.05-2.15.02-.41.04-.82.1-1.21.2-.17.05-.34.09-.51.14-.3.07-.34.08-.11.02-1.35.06-2.5,1.11-2.5,2.5,0,1.31,1.14,2.56,2.5,2.5.78-.03,1.45-.3,2.21-.4.28-.04,1.25.02,1.78.02,1.44,0,2.87-.1,4.3-.21,2.85-.21,5.7-.16,8.56-.17,1.35,0,2.5-1.15,2.5-2.5s-1.14-2.5-2.5-2.5h0Z"/>
    <path class="cls-2" d="M199.58,247.6c-.25.04-.22.03.01,0,.36-.05.66-.07.99-.17.56-.18,1.01-.46,1.46-.85.24-.21.43-.45.65-.67.11-.11.22-.21.34-.32.49-.43-.18.06.14-.1.59-.31,1.14-.67,1.75-.95.16-.07.3-.13.06-.03.18-.08.36-.15.55-.22.36-.15.72-.29,1.08-.44.32-.13.65-.27.97-.39.17-.07.4-.11.54-.2.24-.15-.26-.02.03-.03.83-.02,1.59-.19,2.36-.47.18-.06.37-.1.54-.18.3-.13-.31,0,.04,0,.65-.01,1.28-.16,1.86-.44s1.1-.77,1.62-1.16c1.04-.79,1.69-2.19.9-3.42-.66-1.03-2.3-1.74-3.42-.9-.26.19-.51.39-.77.58-.15.11-.32.22-.46.35s-.5.23.09.07c.66-.18.12-.07-.06-.06-.3.03-.6.06-.9.12-.34.07-.66.19-.98.31-.14.05-.29.1-.43.15-.2.07-.28.07-.02.04-.5.05-1,.05-1.5.16-.68.15-1.34.49-1.99.75-1.35.54-2.75,1.04-3.99,1.8-.67.41-1.33.9-1.89,1.45-.1.1-.2.21-.29.32-.14.15-.59.48,0,.12.05-.03.66-.23.39-.17-.33.07-.67.08-1,.14-1.29.23-2.14,1.87-1.75,3.08.45,1.39,1.69,1.99,3.08,1.75h0Z"/>
    <g id="Layer_11" data-name="Layer 11">
      <path class="cls-2" d="M177.79,242.21c-.74.14.42.02-.32.04-.21,0-.41.02-.62.01s-.41-.02-.62-.03c-.77-.06.43.11-.33-.05-.91-.19-1.81-.44-2.69-.73-1-.33-2.23-.91-3.28-.57-1.86.6-2.32,2.63-1.39,4.19l-.34-1.26.03-.3.64-1.1c-.31.39-.74.68-1.12,1-.83.68-.93,2.16-.39,3.03,1.08,1.73,2.88,1.36,4.58,1.2,1.27-.12,2.54-.24,3.81-.21.31,0,.61.02.91.05.09,0,1.04.11.62.06.6.08,1.19.18,1.79.27,1.41.21,2.82.4,4.24.3,1.3-.09,2.56-1.08,2.5-2.5-.06-1.27-1.1-2.6-2.5-2.5-.6.04-1.19.04-1.79,0-.26-.02-.51-.05-.77-.07-.58-.06.17.03-.36-.05-1.28-.2-2.57-.42-3.86-.51-1.14-.08-2.28-.03-3.41.07-.57.05-1.14.1-1.71.16-.26.02-.53.05-.79.07-.18.02-.35.03-.53.04-.4.01-.35.03.14.06l1.49,1.15-.06-.1-.39,3.03c.64-.53,1.3-1.01,1.64-1.8.19-.45.29-.83.27-1.33,0-.45-.12-.87-.34-1.26-.13-.23-.11-.17.07.19l-.25,1.93.08-.11-2.16,1.24c-.25,0-.36-.07-.06.04.15.05.3.09.45.14.34.11.68.23,1.02.34.68.22,1.37.43,2.08.59,1.69.38,3.34.46,5.05.13,1.29-.25,2.14-1.86,1.75-3.08-.44-1.37-1.7-2.01-3.08-1.75h0Z"/>
      <circle class="cls-4" cx="184.62" cy="179.34" r="71.71"/>
    </g>
    <path class="cls-5" d="M182.88,92.18c-48.42,0-87.82,39.4-87.82,87.82s39.4,87.82,87.82,87.82,87.82-39.4,87.82-87.82-39.4-87.82-87.82-87.82ZM182.88,247.2c-37.05,0-67.2-30.14-67.2-67.2s30.14-67.2,67.2-67.2,67.2,30.14,67.2,67.2-30.14,67.2-67.2,67.2Z"/>
    <path class="cls-5" d="M168.42,263.09"/>
    <path class="cls-1" d="M245.93,185.58"/>
    <path class="cls-3" d="M208.01,200.31c1.06-2.23,2.71-4.12,3.74-6.37s1.6-4.83.72-7.23c-.99-2.72-3.59-4.25-6.26-5.03-2.93-.86-5.79.63-8.49,1.6-1.23.44-2.18,1.72-1.75,3.08.39,1.21,1.76,2.22,3.08,1.75,1.06-.38,2.13-.76,3.19-1.14.52-.18,1.03-.36,1.56-.51.63-.17-.26-.04.4-.06.6-.02-.16-.11.42.04.85.22,1.64.59,2.56,1.15.55.33-.15-.2.24.2.43.44-.18-.39.12.13.06.1.31.66.11.13.07.19.13.39.18.59.04.15.07.74.04.16.01.21.02.42.02.64s-.02.43-.04.64c.05-.45,0-.02-.06.18s-.11.41-.17.62c-.03.08-.25.69-.1.31-.19.47-.44.92-.69,1.36-1.01,1.78-2.28,3.39-3.16,5.24-.56,1.18-.37,2.75.9,3.42,1.11.59,2.82.36,3.42-.9h0Z"/>
    <g>
      <path class="cls-4" d="M107.18,208.29c-.07.75.03,1.85.45,2.84.45,1.06,1.13,1.44,1.81,1.15.63-.27.79-.91.7-2.32-.12-1.96.33-3.48,1.82-4.11,1.74-.74,3.69.15,4.72,2.56.5,1.17.62,2.11.6,2.83l-2.07.28c.02-.49,0-1.35-.43-2.34-.43-1.01-1.1-1.29-1.62-1.07-.65.28-.7.96-.63,2.51.1,2.1-.49,3.34-1.93,3.96-1.71.73-3.73.05-4.93-2.77-.49-1.16-.67-2.45-.6-3.16l2.11-.35Z"/>
      <path class="cls-4" d="M118.74,223.92c-3.13,1.87-6.15,1.11-7.82-1.68-1.69-2.83-.54-5.77,2.18-7.4,2.85-1.7,6.09-1.15,7.77,1.67,1.75,2.93.51,5.84-2.13,7.42ZM114.5,217.1c-1.87,1.12-2.66,2.78-1.8,4.22.87,1.46,2.75,1.47,4.6.36,1.72-1.03,2.7-2.72,1.82-4.2-.87-1.46-2.76-1.49-4.62-.38Z"/>
      <path class="cls-4" d="M124.06,221.82l1.56,1.97-7.07,5.58,2.74,3.47-1.65,1.31-4.3-5.44,8.72-6.89Z"/>
      <path class="cls-4" d="M125.01,235.68l-2.56,1.49-1.85-1.82,10.21-5.55,2.35,2.31-5.33,10.35-1.93-1.9,1.39-2.64-2.28-2.24ZM128.33,236.32l1.16-2.17c.32-.6.77-1.34,1.1-1.92l-.02-.02c-.57.35-1.29.84-1.87,1.17l-2.13,1.22,1.75,1.72Z"/>
      <path class="cls-4" d="M136.15,235.08c.73.38,1.74,1.01,2.81,1.82,1.32.99,2.09,1.89,2.35,2.87.21.82.04,1.66-.58,2.48-.85,1.13-2.24,1.3-3.21,1l-.03.04c.43.71.33,1.56-.06,2.55-.48,1.21-1.09,2.57-1.17,3.05l-2.06-1.55c.06-.36.37-1.24.95-2.53.59-1.3.44-1.87-.38-2.51l-.6-.45-2.62,3.49-1.99-1.5,6.59-8.76ZM135.27,240.39l.79.59c1,.75,1.97.69,2.56-.08.61-.81.37-1.65-.55-2.34-.48-.36-.79-.54-.96-.61l-1.84,2.45Z"/>
      <path class="cls-4" d="M146.06,242.11c.89.28,2.01.74,3.13,1.31,1.88.95,2.94,1.92,3.53,3.11.64,1.29.68,2.83-.2,4.58-.96,1.9-2.31,2.87-3.67,3.2-1.48.35-3.29-.04-5.23-1.02-1.17-.59-1.96-1.07-2.48-1.43l4.91-9.75ZM144.22,251.34c.18.14.49.3.76.43,2.02,1.04,3.93.59,5.12-1.79,1.04-2.06.38-3.75-1.55-4.72-.49-.25-.84-.37-1.06-.43l-3.27,6.5Z"/>
      <path class="cls-4" d="M159.96,254.86l-3.87-1.34-.87,2.5,4.32,1.5-.68,1.95-6.7-2.33,3.65-10.51,6.47,2.25-.68,1.94-4.1-1.42-.76,2.19,3.87,1.34-.67,1.93Z"/>
      <path class="cls-4" d="M169.23,261.54c-.49.12-1.57.15-2.88-.13-3.76-.82-5.2-3.59-4.53-6.69.8-3.71,3.9-5.18,7.19-4.47,1.28.28,2.2.74,2.57,1.06l-.92,1.84c-.44-.32-1.1-.67-1.98-.86-1.94-.42-3.72.43-4.24,2.85-.47,2.18.52,3.83,2.71,4.3.75.16,1.6.19,2.13.09l-.05,2.01Z"/>
      <path class="cls-4" d="M174.51,259.56l-1,2.79-2.59-.2,4.24-10.83,3.28.25,2.6,11.36-2.7-.21-.63-2.91-3.19-.25ZM177.47,257.91l-.51-2.41c-.14-.67-.27-1.52-.39-2.18h-.03c-.21.64-.44,1.47-.67,2.1l-.84,2.3,2.45.19Z"/>
      <path class="cls-4" d="M183.61,253.79l-3,.1-.07-2.11,8.55-.28.07,2.11-3.04.1.29,9-2.51.08-.29-9Z"/>
      <path class="cls-4" d="M192.22,251.05l.7,4.22,4.09-.67-.7-4.22,2.48-.41,1.81,10.97-2.48.41-.76-4.59-4.09.67.76,4.59-2.48.41-1.81-10.97,2.48-.41Z"/>
      <path class="cls-4" d="M200.21,249.54l2.41-.72,2.58,8.64,4.24-1.27.6,2.02-6.65,1.99-3.19-10.66Z"/>
      <path class="cls-4" d="M218.54,248.44c1.47,3.34.34,6.24-2.64,7.55-3.02,1.33-5.8-.18-7.07-3.08-1.34-3.04-.38-6.18,2.61-7.5,3.12-1.37,5.86.21,7.1,3.03ZM211.25,251.8c.88,1.99,2.43,2.99,3.97,2.31,1.55-.68,1.8-2.54.93-4.52-.81-1.83-2.36-3.02-3.95-2.32-1.56.69-1.82,2.56-.95,4.54Z"/>
      <path class="cls-4" d="M223.02,252.41l-5.95-9.39,2.47-1.57,4.13,2.21c1.19.63,2.48,1.46,3.57,2.25l.03-.03c-.92-1.16-1.76-2.4-2.66-3.82l-1.73-2.74,1.95-1.24,5.95,9.4-2.22,1.41-4.3-2.34c-1.2-.66-2.58-1.47-3.73-2.29l-.04.04c.85,1.2,1.72,2.52,2.69,4.05l1.79,2.82-1.95,1.23Z"/>
      <path class="cls-4" d="M242.57,238.77c-.4,1.01-.92,1.7-1.77,2.51-1.98,1.89-5.08,2.14-7.32-.2-2.33-2.43-2.57-6.24.11-8.81,2.1-2.01,4.99-2,6.9,0,1.67,1.74,1.74,3.77.45,5-.56.54-1.25.62-1.9.06l-.03.03c.2.96-.02,1.78-.66,2.39-.77.74-1.89.7-2.83-.28-1.39-1.46-1.57-3.8.14-5.44.53-.5,1.25-.95,1.69-1.07l1.76,2.55c.55.81.95,1.06,1.29.74.53-.47.54-1.74-.77-3.11-1.49-1.56-3.63-1.79-5.48-.03-1.83,1.75-2.06,4.7.12,6.97,1.91,2,4.26,1.91,6.04.21.61-.58,1.13-1.33,1.38-2.03l.87.49ZM236.81,234.86c-.13.07-.27.16-.42.3-.79.75-.66,2.12.21,3.03.43.45.9.55,1.29.18.44-.42.37-1.43-.18-2.22l-.91-1.3Z"/>
      <path class="cls-4" d="M240.27,222.67l5.23,3.67c1.57,1.1,2.8,1.06,3.53.02.76-1.08.41-2.21-1.2-3.34l-5.23-3.67,1.44-2.06,5.11,3.58c2.81,1.97,3.15,4.32,1.48,6.71-1.61,2.3-3.83,2.74-6.72.71l-5.08-3.57,1.44-2.06Z"/>
      <path class="cls-4" d="M255.61,219.43l-11.17-2.4,1.16-2.43,4.5,1.21c1.3.35,2.7.77,3.79,1.09v-.03c-1-.68-2.09-1.49-3.21-2.34l-3.7-2.82,1.15-2.41,4.62,1.22c1.27.34,2.43.68,3.61,1.07v-.03c-1.03-.69-2.09-1.46-3.19-2.25l-3.72-2.77,1.1-2.31,8.81,7.37-1.17,2.45-4.73-1.2c-1.1-.28-2.12-.57-3.32-.99v.03c1.04.71,1.91,1.32,2.81,2.05l3.86,3.01-1.18,2.49Z"/>
    </g>
  </g>
  <g id="Black">
    <path class="cls-2" d="M125.03,214.15l5.16-6.83-4.04-3.16,2.5-12.17-4.55-3.1,3.28-20.89-2.34-4.33s15.68-24.34,14.98-29.48c-.7-5.15.94-26.68.94-26.68,0,0-.47-7.02,4.45-9.13,4.91-2.11,7.49,1.87,7.49,1.87l9.95,15.73c1.09,1.72,2.98,2.76,5.02,2.76h3.52l18.72,1.64,10.25,1.55c3.28.5,6.59-.57,8.97-2.88l13.31-12.95,3.51-.12c1.99-.07,3.84,1.06,4.69,2.86l1.67,3.56c.58,1.24.83,2.61.7,3.97l-.84,9.35c-.1,1.11-.11,2.23-.05,3.34l.91,14.76c.1,1.66-.17,3.32-.79,4.86l-1.83,4.53c-.78,1.92-.91,4.04-.37,6.04l4.56,5.81-2.02,3.72,5.97,10.79-4.3,2.9c.05.18,6.86,12.2,6.93,12.37l-5.18,2.54c1.04,2.61.65,19.21,1.1,21.98,0,0-16.97,25.69-49.88,27.41-42.67,3.56-62.38-32.65-62.38-32.65Z"/>
  </g>
  <g id="White">
    <path class="cls-4" d="M173.04,166.66l-7.05,7.36-10.25-1.83c-1.25-.22-1.81-1.69-1.04-2.69l4.84-6.3c.28-.36-.1-.85-.52-.68l-13.03,5.43h-3.86l3.33-7.13-1.93-2.11-10.18,10.18-4.04,9.03h2.81l-4.39,10.63h5.44l-2.63,11.76,3.51,5.27v7.9l8.6,11.41,8.42,3.2,6.84,6.28,12.11-2.11,12.11,3.69,4.02-4.61,13.68.53,1.26-4.85,11.23-2.3c1.57-.91,5.19-6.06,5.69-7.8l5.19-18-2.63-6.84,4.56-4.21-3.82-9.48c-.37-.91-1-1.7-1.81-2.26l-10.69-7.39-11.86,7.87c-1.22.81-2.8.84-4.05.07l-10.94-6.72-4.5-3.58c-1.33-1.06-3.24-.93-4.42.3Z"/>
    <path class="cls-4" d="M183.02,155.37l-4.56-2.28v-6.83c0-1.01.43-1.98,1.18-2.66l4.26-3.85h2.69c1.19,0,2.31.52,3.08,1.43l2.65,3.14v4.14c0,1.37-.97,2.55-2.31,2.83l-4.62.94-2.37,3.16Z"/>
    <path class="cls-4" d="M154.06,147.56l2.98,1.49.95,3.57c.24.89,1.21,1.36,2.06,1l2.08-.89,3.51-12.99-2.28-2.98-4.76,1.34c-1.29.37-2.3,1.38-2.66,2.68l-1.88,6.78Z"/>
    <path class="cls-4" d="M206.71,126.77l7.11-9.66c1.43-1.94,3.37-3.46,5.6-4.38l4.12-1.7c1.5-.62,3.23,0,3.99,1.45l2.53,4.83v9.48l2.46,18.78s-2.61,10.5-3.86,9.83c-.61-.33-5.27-9.83-5.27-9.83l.72-21.27c.04-1.32-1.66-1.87-2.4-.78l-8.33,12.22-6.67-8.95Z"/>
    <path class="cls-4" d="M161.08,120.45l-3.89-10.48c-.43-1.17-1.24-2.17-2.28-2.85l-5.8-3.76c-1.13-.73-2.65-.4-3.36.75l-1.63,2.62c-.73,1.17-1.2,2.49-1.38,3.86l-1.66,12.66v11.41l5.79-3.07-.88-13.96.84-3.88c.21-.95,1.46-1.17,1.98-.34l6.66,10.71,5.62-3.69Z"/>
  </g>
  <g id="Layer_5" data-name="Layer 5">
    <path class="cls-2" d="M157.03,174.15l4.08.53c1.66.22,3.15,1.13,4.09,2.51l1.33,1.95c1.09,1.6,1.33,3.63.64,5.44l-.66,1.72c-.55,1.43-1.64,2.6-3.04,3.24l-6.46,2.96c-1.33.61-2.84.7-4.24.26l-.28-.09c-.92-.29-1.76-.81-2.43-1.5l-3.62-3.72c-1.07-1.1-1.67-2.57-1.67-4.11v-.58c0-1.43.52-2.81,1.47-3.89l1.66-1.88c.82-.93,1.92-1.58,3.13-1.86l3.96-.89c.67-.15,1.37-.18,2.06-.09Z"/>
    <path class="cls-2" d="M193.14,195.92l-7.25,13.26c-.69,1.27-1.7,2.34-2.91,3.11l-9.08,5.75-5.84,3.13c-2.55,1.37-5.55,1.64-8.3.76l-7.8-2.49h0c-1.47-.63-2.36-2.13-2.23-3.72l1.15-13.27c.12-1.42,1.05-2.64,2.38-3.14l2.03-.76,7.02,4.74,8.06,2.19c2.71.73,5.6.36,8.03-1.04l14.75-8.51Z"/>
    <polygon class="cls-4" points="149.4 174.1 154.73 167.01 141.07 170.7 136.27 180.54 138.15 197.32 145.17 207.44 149.71 204.43 142.36 197.32 142.12 187.32 145.4 178.89 149.4 174.1"/>
  </g>
  <g id="Layer_6" data-name="Layer 6">
    <polygon class="cls-4" points="163.46 189.54 166.72 203.86 159.85 201.63 155.29 198.55 150.87 202.45 147.74 195.92 147.74 188.8 154.06 193.04 163.46 189.54"/>
    <path class="cls-4" d="M172.8,205.83l-5.37,10.16c-1.1,2.08-3.26,3.39-5.62,3.4l-8.32-.46c-1.39-.08-2.36-1.41-2-2.76l4.66-7,3.69-7.54,12.95,4.21Z"/>
    <path class="cls-4" d="M150.7,152.71l1.8-.23c.91-.29,1.91.07,2.42.88l2.2,3.53h-3.56c-.57,0-1.12-.25-1.48-.69l-1.88-1.71c-.51-.6-.24-1.53.51-1.77Z"/>
    <path class="cls-4" d="M185.39,160.64l3.24-3.43c1.01-1.07,2.61-1.35,3.92-.69l3.37,1.7c.46.23.54.86.16,1.2l-2.48,2.19c-.38.33-.83.56-1.3.68-.52.13-1.08.12-1.61-.04l-5.3-1.61Z"/>
  </g>
  <g id="Layer_7" data-name="Layer 7">
    <g>
      <circle class="cls-2" cx="193.78" cy="205.19" r=".49"/>
      <circle class="cls-2" cx="193.78" cy="207.14" r=".49"/>
      <circle class="cls-2" cx="191.81" cy="209.09" r=".49"/>
      <circle class="cls-2" cx="191.81" cy="211.05" r=".49"/>
      <circle class="cls-2" cx="193.77" cy="209.09" r=".49"/>
      <circle class="cls-2" cx="193.77" cy="211.05" r=".49"/>
      <circle class="cls-2" cx="195.73" cy="211.08" r=".49"/>
    </g>
    <g>
      <g>
        <circle class="cls-2" cx="162.49" cy="228.56" r=".49"/>
        <circle class="cls-2" cx="164.45" cy="228.59" r=".49"/>
        <circle class="cls-2" cx="164.45" cy="230.54" r=".49"/>
        <circle class="cls-2" cx="166.4" cy="228.59" r=".49"/>
        <circle class="cls-2" cx="166.4" cy="230.54" r=".49"/>
        <circle class="cls-2" cx="168.36" cy="228.59" r=".49"/>
        <circle class="cls-2" cx="168.36" cy="230.54" r=".49"/>
        <circle class="cls-2" cx="170.31" cy="228.59" r=".49"/>
        <circle class="cls-2" cx="172.26" cy="228.59" r=".49"/>
        <circle class="cls-2" cx="174.21" cy="228.59" r=".49"/>
        <circle class="cls-2" cx="176.17" cy="228.59" r=".49"/>
        <circle class="cls-2" cx="178.12" cy="228.59" r=".49"/>
        <circle class="cls-2" cx="180.08" cy="228.62" r=".49"/>
        <circle class="cls-2" cx="182.04" cy="228.62" r=".49"/>
      </g>
      <g>
        <circle class="cls-2" cx="180.07" cy="218.86" r=".49"/>
        <circle class="cls-2" cx="182.03" cy="218.86" r=".49"/>
        <circle class="cls-2" cx="183.98" cy="216.91" r=".49"/>
        <circle class="cls-2" cx="183.98" cy="218.86" r=".49"/>
        <circle class="cls-2" cx="185.93" cy="216.91" r=".49"/>
        <circle class="cls-2" cx="185.93" cy="218.86" r=".49"/>
        <g>
          <circle class="cls-2" cx="160.52" cy="226.59" r=".49"/>
          <circle class="cls-2" cx="162.47" cy="226.59" r=".49"/>
          <circle class="cls-2" cx="164.44" cy="226.62" r=".49"/>
          <circle class="cls-2" cx="166.39" cy="226.62" r=".49"/>
          <circle class="cls-2" cx="168.34" cy="226.62" r=".49"/>
          <circle class="cls-2" cx="170.29" cy="224.67" r=".49"/>
          <circle class="cls-2" cx="170.29" cy="226.62" r=".49"/>
          <circle class="cls-2" cx="174.21" cy="222.72" r=".49"/>
          <circle class="cls-2" cx="176.16" cy="220.76" r=".49"/>
          <circle class="cls-2" cx="176.16" cy="222.72" r=".49"/>
          <circle class="cls-2" cx="178.11" cy="220.76" r=".49"/>
          <circle class="cls-2" cx="178.11" cy="222.72" r=".49"/>
          <circle class="cls-2" cx="172.25" cy="224.67" r=".49"/>
          <circle class="cls-2" cx="172.25" cy="226.62" r=".49"/>
          <circle class="cls-2" cx="174.2" cy="224.67" r=".49"/>
          <circle class="cls-2" cx="174.2" cy="226.62" r=".49"/>
          <circle class="cls-2" cx="176.15" cy="224.67" r=".49"/>
          <circle class="cls-2" cx="176.15" cy="226.62" r=".49"/>
          <circle class="cls-2" cx="178.11" cy="224.67" r=".49"/>
          <circle class="cls-2" cx="178.11" cy="226.62" r=".49"/>
          <circle class="cls-2" cx="180.08" cy="220.79" r=".49"/>
          <circle class="cls-2" cx="180.08" cy="222.75" r=".49"/>
          <circle class="cls-2" cx="182.03" cy="220.79" r=".49"/>
          <circle class="cls-2" cx="182.03" cy="222.75" r=".49"/>
          <circle class="cls-2" cx="183.98" cy="220.79" r=".49"/>
          <circle class="cls-2" cx="183.98" cy="222.75" r=".49"/>
          <circle class="cls-2" cx="185.93" cy="220.79" r=".49"/>
          <circle class="cls-2" cx="185.93" cy="222.75" r=".49"/>
          <circle class="cls-2" cx="180.07" cy="224.7" r=".49"/>
          <circle class="cls-2" cx="180.07" cy="226.65" r=".49"/>
          <circle class="cls-2" cx="182.02" cy="224.7" r=".49"/>
          <circle class="cls-2" cx="182.02" cy="226.65" r=".49"/>
          <circle class="cls-2" cx="183.97" cy="224.7" r=".49"/>
          <circle class="cls-2" cx="183.97" cy="226.65" r=".49"/>
          <circle class="cls-2" cx="185.93" cy="224.7" r=".49"/>
        </g>
      </g>
    </g>
    <g>
      <circle class="cls-2" cx="187.91" cy="214.89" r=".49"/>
      <circle class="cls-2" cx="189.86" cy="212.94" r=".49"/>
      <circle class="cls-2" cx="189.86" cy="214.89" r=".49"/>
      <circle class="cls-2" cx="191.81" cy="212.94" r=".49"/>
      <circle class="cls-2" cx="191.81" cy="214.89" r=".49"/>
      <circle class="cls-2" cx="193.77" cy="212.94" r=".49"/>
      <circle class="cls-2" cx="193.77" cy="214.89" r=".49"/>
      <circle class="cls-2" cx="187.9" cy="216.85" r=".49"/>
      <circle class="cls-2" cx="187.9" cy="218.8" r=".49"/>
      <circle class="cls-2" cx="189.85" cy="216.85" r=".49"/>
      <circle class="cls-2" cx="189.85" cy="218.8" r=".49"/>
      <circle class="cls-2" cx="191.81" cy="216.85" r=".49"/>
      <circle class="cls-2" cx="191.81" cy="218.8" r=".49"/>
      <circle class="cls-2" cx="193.76" cy="216.85" r=".49"/>
      <circle class="cls-2" cx="193.76" cy="218.8" r=".49"/>
      <circle class="cls-2" cx="195.73" cy="212.97" r=".49"/>
      <circle class="cls-2" cx="195.73" cy="214.92" r=".49"/>
      <circle class="cls-2" cx="195.72" cy="216.88" r=".49"/>
      <circle class="cls-2" cx="195.72" cy="218.83" r=".49"/>
      <circle class="cls-2" cx="197.67" cy="216.88" r=".49"/>
      <circle class="cls-2" cx="197.67" cy="218.83" r=".49"/>
      <g>
        <circle class="cls-2" cx="187.9" cy="220.73" r=".49"/>
        <circle class="cls-2" cx="187.9" cy="222.69" r=".49"/>
        <circle class="cls-2" cx="189.86" cy="220.73" r=".49"/>
        <circle class="cls-2" cx="189.86" cy="222.69" r=".49"/>
        <circle class="cls-2" cx="191.81" cy="220.73" r=".49"/>
        <circle class="cls-2" cx="191.81" cy="222.69" r=".49"/>
        <circle class="cls-2" cx="193.76" cy="220.73" r=".49"/>
        <circle class="cls-2" cx="193.76" cy="222.69" r=".49"/>
        <circle class="cls-2" cx="195.72" cy="220.76" r=".49"/>
        <circle class="cls-2" cx="197.68" cy="220.76" r=".49"/>
      </g>
    </g>
  </g>
  <g id="Layer_8" data-name="Layer 8">
    <g>
      <g>
        <circle class="cls-2" cx="137.02" cy="179.69" r=".49"/>
        <circle class="cls-2" cx="138.97" cy="177.73" r=".49"/>
        <circle class="cls-2" cx="138.97" cy="179.69" r=".49"/>
        <circle class="cls-2" cx="140.92" cy="177.73" r=".49"/>
        <circle class="cls-2" cx="140.92" cy="179.69" r=".49"/>
        <circle class="cls-2" cx="137.01" cy="181.64" r=".49"/>
        <circle class="cls-2" cx="137.01" cy="183.59" r=".49"/>
        <circle class="cls-2" cx="138.96" cy="181.64" r=".49"/>
        <circle class="cls-2" cx="138.96" cy="183.59" r=".49"/>
        <circle class="cls-2" cx="140.91" cy="181.64" r=".49"/>
        <circle class="cls-2" cx="140.91" cy="183.59" r=".49"/>
        <circle class="cls-2" cx="142.88" cy="177.76" r=".49"/>
        <circle class="cls-2" cx="142.88" cy="179.72" r=".49"/>
        <circle class="cls-2" cx="144.84" cy="177.76" r=".49"/>
        <circle class="cls-2" cx="144.84" cy="179.72" r=".49"/>
        <circle class="cls-2" cx="142.88" cy="181.67" r=".49"/>
        <circle class="cls-2" cx="142.88" cy="183.62" r=".49"/>
        <g>
          <circle class="cls-2" cx="137.01" cy="185.53" r=".49"/>
          <circle class="cls-2" cx="138.96" cy="185.53" r=".49"/>
          <circle class="cls-2" cx="138.96" cy="187.48" r=".49"/>
          <circle class="cls-2" cx="140.92" cy="185.53" r=".49"/>
          <circle class="cls-2" cx="140.92" cy="187.48" r=".49"/>
          <circle class="cls-2" cx="138.95" cy="189.43" r=".49"/>
          <circle class="cls-2" cx="138.95" cy="191.39" r=".49"/>
          <circle class="cls-2" cx="140.91" cy="189.43" r=".49"/>
          <circle class="cls-2" cx="140.91" cy="191.39" r=".49"/>
          <circle class="cls-2" cx="142.88" cy="185.56" r=".49"/>
          <circle class="cls-2" cx="148.73" cy="189.46" r=".49"/>
          <circle class="cls-2" cx="148.73" cy="191.42" r=".49"/>
        </g>
      </g>
      <g>
        <circle class="cls-2" cx="140.92" cy="171.86" r=".49"/>
        <circle class="cls-2" cx="138.95" cy="175.77" r=".49"/>
        <circle class="cls-2" cx="140.91" cy="173.82" r=".49"/>
        <circle class="cls-2" cx="140.91" cy="175.77" r=".49"/>
        <circle class="cls-2" cx="142.88" cy="169.94" r=".49"/>
        <circle class="cls-2" cx="142.88" cy="171.89" r=".49"/>
        <circle class="cls-2" cx="144.83" cy="169.94" r=".49"/>
        <circle class="cls-2" cx="144.83" cy="171.89" r=".49"/>
        <circle class="cls-2" cx="146.78" cy="169.94" r=".49"/>
        <circle class="cls-2" cx="146.78" cy="171.89" r=".49"/>
        <circle class="cls-2" cx="148.74" cy="169.94" r=".49"/>
        <circle class="cls-2" cx="148.74" cy="171.89" r=".49"/>
        <circle class="cls-2" cx="142.87" cy="173.85" r=".49"/>
        <circle class="cls-2" cx="142.87" cy="175.8" r=".49"/>
        <circle class="cls-2" cx="144.82" cy="173.85" r=".49"/>
        <circle class="cls-2" cx="144.82" cy="175.8" r=".49"/>
        <circle class="cls-2" cx="146.77" cy="173.85" r=".49"/>
        <circle class="cls-2" cx="146.77" cy="175.8" r=".49"/>
        <circle class="cls-2" cx="148.73" cy="173.85" r=".49"/>
      </g>
    </g>
    <g>
      <g>
        <circle class="cls-2" cx="150.7" cy="191.36" r=".49"/>
        <circle class="cls-2" cx="158.52" cy="191.39" r=".49"/>
        <circle class="cls-2" cx="160.47" cy="191.39" r=".49"/>
        <circle class="cls-2" cx="162.42" cy="191.39" r=".49"/>
      </g>
      <g>
        <circle class="cls-2" cx="150.7" cy="167.94" r=".49"/>
        <circle class="cls-2" cx="152.65" cy="167.94" r=".49"/>
        <g>
          <circle class="cls-2" cx="150.7" cy="169.88" r=".49"/>
          <circle class="cls-2" cx="150.7" cy="171.83" r=".49"/>
          <circle class="cls-2" cx="152.66" cy="169.88" r=".49"/>
        </g>
      </g>
    </g>
    <g>
      <circle class="cls-2" cx="138.95" cy="193.28" r=".49"/>
      <circle class="cls-2" cx="138.95" cy="195.23" r=".49"/>
      <circle class="cls-2" cx="140.91" cy="193.28" r=".49"/>
      <circle class="cls-2" cx="140.91" cy="195.23" r=".49"/>
      <circle class="cls-2" cx="138.95" cy="197.19" r=".49"/>
      <circle class="cls-2" cx="140.9" cy="197.19" r=".49"/>
      <circle class="cls-2" cx="140.9" cy="199.14" r=".49"/>
      <circle class="cls-2" cx="148.73" cy="193.31" r=".49"/>
      <circle class="cls-2" cx="148.73" cy="195.26" r=".49"/>
      <circle class="cls-2" cx="142.86" cy="199.17" r=".49"/>
      <circle class="cls-2" cx="148.72" cy="197.21" r=".49"/>
      <g>
        <circle class="cls-2" cx="140.9" cy="201.07" r=".49"/>
        <circle class="cls-2" cx="142.86" cy="201.1" r=".49"/>
        <circle class="cls-2" cx="142.86" cy="203.06" r=".49"/>
        <circle class="cls-2" cx="144.82" cy="201.1" r=".49"/>
        <circle class="cls-2" cx="144.82" cy="203.06" r=".49"/>
        <circle class="cls-2" cx="146.77" cy="203.06" r=".49"/>
        <circle class="cls-2" cx="142.85" cy="205.01" r=".49"/>
        <circle class="cls-2" cx="144.81" cy="205.01" r=".49"/>
        <circle class="cls-2" cx="144.81" cy="206.96" r=".49"/>
        <circle class="cls-2" cx="146.76" cy="205.01" r=".49"/>
        <circle class="cls-2" cx="148.71" cy="205.01" r=".49"/>
      </g>
    </g>
    <g>
      <circle class="cls-2" cx="150.7" cy="193.25" r=".49"/>
      <circle class="cls-2" cx="150.7" cy="195.2" r=".49"/>
      <circle class="cls-2" cx="152.65" cy="193.25" r=".49"/>
      <circle class="cls-2" cx="152.65" cy="195.2" r=".49"/>
      <circle class="cls-2" cx="154.6" cy="193.25" r=".49"/>
      <circle class="cls-2" cx="154.6" cy="195.2" r=".49"/>
      <circle class="cls-2" cx="156.55" cy="193.25" r=".49"/>
      <circle class="cls-2" cx="156.55" cy="195.2" r=".49"/>
      <circle class="cls-2" cx="150.69" cy="197.16" r=".49"/>
      <circle class="cls-2" cx="150.69" cy="199.11" r=".49"/>
      <circle class="cls-2" cx="152.64" cy="197.16" r=".49"/>
      <circle class="cls-2" cx="152.64" cy="199.11" r=".49"/>
      <circle class="cls-2" cx="154.59" cy="197.16" r=".49"/>
      <circle class="cls-2" cx="154.59" cy="199.11" r=".49"/>
      <circle class="cls-2" cx="156.54" cy="197.16" r=".49"/>
      <circle class="cls-2" cx="156.54" cy="199.11" r=".49"/>
      <circle class="cls-2" cx="158.52" cy="193.28" r=".49"/>
      <circle class="cls-2" cx="158.52" cy="195.23" r=".49"/>
      <circle class="cls-2" cx="160.47" cy="193.28" r=".49"/>
      <circle class="cls-2" cx="160.47" cy="195.23" r=".49"/>
      <circle class="cls-2" cx="162.42" cy="193.28" r=".49"/>
      <circle class="cls-2" cx="162.42" cy="195.23" r=".49"/>
      <circle class="cls-2" cx="164.37" cy="193.28" r=".49"/>
      <circle class="cls-2" cx="164.37" cy="195.23" r=".49"/>
      <circle class="cls-2" cx="158.51" cy="197.19" r=".49"/>
      <circle class="cls-2" cx="158.51" cy="199.14" r=".49"/>
      <circle class="cls-2" cx="160.46" cy="197.19" r=".49"/>
      <circle class="cls-2" cx="160.46" cy="199.14" r=".49"/>
      <circle class="cls-2" cx="162.41" cy="197.19" r=".49"/>
      <circle class="cls-2" cx="162.41" cy="199.14" r=".49"/>
      <circle class="cls-2" cx="164.37" cy="197.19" r=".49"/>
      <circle class="cls-2" cx="164.37" cy="199.14" r=".49"/>
      <g>
        <circle class="cls-2" cx="150.69" cy="201.04" r=".49"/>
        <circle class="cls-2" cx="152.64" cy="201.04" r=".49"/>
        <circle class="cls-2" cx="160.46" cy="201.07" r=".49"/>
        <circle class="cls-2" cx="162.42" cy="201.07" r=".49"/>
        <circle class="cls-2" cx="162.42" cy="203.03" r=".49"/>
        <circle class="cls-2" cx="164.37" cy="201.07" r=".49"/>
        <circle class="cls-2" cx="164.37" cy="203.03" r=".49"/>
      </g>
    </g>
  </g>
  <g id="Layer_9" data-name="Layer 9">
    <polygon class="cls-2" points="164.94 204.52 158.02 214.92 165.9 204.7 164.94 204.52"/>
  </g>
  <g id="Layer_10" data-name="Layer 10">
    <circle class="cls-2" cx="189.4" cy="158.38" r="3"/>
    <ellipse class="cls-2" cx="152.72" cy="153.59" rx="2.15" ry="2.39"/>
  </g>
</svg>